<svg xmlns="http://www.w3.org/2000/svg" width="247.36" height="141.08" viewBox="0 0 247.36 141.08"><path id="Path_1358" data-name="Path 1358" d="M70.54,0a70.574,70.574,0,0,0-49.9,120.444,70.657,70.657,0,0,0,99.807,0,70.657,70.657,0,0,0,0-99.807A70.045,70.045,0,0,0,70.54,0ZM40.5,12.78l7.524,14.993H40.5Zm0,17.1h8.52L69.378,70.54l-16.21,32.421L40.5,77.622ZM13.887,108.991a68.358,68.358,0,0,1,0-76.9ZM38.4,131.011A68.584,68.584,0,0,1,22.13,118.95a73.456,73.456,0,0,1-6.141-7.026V33.251L38.4,78.12Zm0-57.594L16.653,29.876h21.8V73.417Zm0-45.644H17.04a60.867,60.867,0,0,1,5.09-5.643A68.584,68.584,0,0,1,38.4,10.069Zm2.1,54.5,11.508,23.015L40.5,128.3Zm.332,49.959,12.338-24.62,15.657,31.37A68.333,68.333,0,0,1,40.83,132.228ZM69.489,135.6,54.33,105.284,69.489,74.966Zm0-69.489L51.4,29.876H69.544V66.114ZM50.346,27.773,40.83,8.8a68.761,68.761,0,0,1,59.42,0L90.734,27.773Zm39.336,2.1L71.536,66.114V29.876ZM71.591,74.966,86.75,105.284,71.591,135.6Zm.664,64.012,15.657-31.37,12.338,24.62A68.333,68.333,0,0,1,72.255,138.978ZM100.582,128.3,89.074,105.284l11.508-23.015Zm0-50.678-12.67,25.339L71.7,70.54l20.36-40.664h8.52V77.622Zm0-49.848H93.058l7.524-14.993Zm26.612,4.26a68.358,68.358,0,0,1,0,76.9Zm-2.1,79.835a67.278,67.278,0,0,1-6.141,7.026,68.584,68.584,0,0,1-16.266,12.061V78.064L125.091,33.2ZM102.684,73.417V29.876h21.8Zm0-45.644V10.014A68.584,68.584,0,0,1,118.95,22.075c1.826,1.826,3.485,3.707,5.09,5.643H102.684Zm62.628,5.865h-5.145v-2.6h13.057v2.6h-5.145V50.125h-2.711V33.638Zm24.454,8.243H179.144v8.244h-2.711V31.038h2.711v8.244h10.623V31.038h2.711V50.07h-2.711Zm22.849-10.844h13.057v2.6h-5.145V50.125h-2.711V33.638h-5.145v-2.6ZM247.36,44.869c0,3.375-2.6,5.533-5.92,5.533a8.661,8.661,0,0,1-6.694-3.209l1.881-1.826a6,6,0,0,0,4.647,2.434,3.077,3.077,0,0,0,3.319-2.877c0-2.932-4.039-3.264-6.584-4.924a4.815,4.815,0,0,1-2.434-4.2c0-2.766,2.434-5.09,5.754-5.09a7.77,7.77,0,0,1,5.09,1.881l-1.6,1.992a5.225,5.225,0,0,0-3.375-1.328c-1.6,0-3.154.885-3.154,2.545,0,2.434,4.039,2.932,6.528,4.592A5.162,5.162,0,0,1,247.36,44.869ZM231.869,37.4H229.49V31.038h2.379ZM162.878,80.056h-2.711V61.024h1.881l11.452,14v-14h2.711V80.056h-1.936l-11.452-14v14Zm27,.277a9.8,9.8,0,1,0-9.516-9.793A9.511,9.511,0,0,0,189.877,80.333Zm0-17.04a6.86,6.86,0,0,1,6.805,7.192c0,4.149-2.932,7.192-6.805,7.192a6.86,6.86,0,0,1-6.805-7.192C183.072,66.391,185.949,63.292,189.877,63.292Zm51.342,27.663h2.711v19.032h-1.881l-11.452-14v14h-2.711V90.955h1.881l11.452,14Zm-64.454,0h1.881v19.032h-2.711V97.152l-6.528,10.235-6.528-10.235v12.836h-2.711V90.955h1.881l7.358,11.618Zm15.546-.277a9.8,9.8,0,1,0,9.516,9.793A9.511,9.511,0,0,0,192.312,90.679Zm0,16.985a7.2,7.2,0,1,1,6.805-7.192C199.117,104.621,196.24,107.663,192.312,107.663ZM214.22,90.679a9.8,9.8,0,1,0,9.516,9.793A9.511,9.511,0,0,0,214.22,90.679Zm0,16.985a7.2,7.2,0,1,1,6.805-7.192C221.025,104.621,218.093,107.663,214.22,107.663Zm-9.793-72.089L199.5,47.58h4.924v2.6h-8.852l7.912-19.032h1.881L213.28,50.18h-2.822Z" fill="#fff"></path></svg>