<svg xmlns="http://www.w3.org/2000/svg" width="778" height="130" fill="none" xmlns:v="https://vecta.io/nano"><path d="M3.6.031h10.898l47.285 112.676L109.156.031h10.811L65.914 128h-8.262L3.6.031zm-3.34 0h9.58l1.143 72.07V128H.26V.031zm113.642 0h9.58V128h-10.81V72.102l1.23-72.07zm89.63 121.304V128h-51.988v-6.665h51.988zm-49.639-85.757V128h-7.808V35.578h7.808zm43.164 41.45v6.665h-45.513v-6.665h45.513zm6.157-41.45v6.729h-51.67v-6.729h51.67zm65.29 69.697c0-2.539-.423-4.803-1.27-6.792s-2.243-3.766-4.189-5.332c-1.905-1.608-4.486-3.089-7.744-4.443-3.217-1.397-7.237-2.772-12.061-4.126-4.613-1.312-8.781-2.751-12.505-4.316s-6.919-3.364-9.585-5.396c-2.624-2.031-4.634-4.401-6.03-7.109-1.397-2.751-2.095-5.946-2.095-9.585 0-3.555.762-6.792 2.285-9.712s3.661-5.438 6.411-7.554c2.793-2.116 6.073-3.745 9.839-4.888 3.809-1.143 7.977-1.714 12.505-1.714 6.475 0 12.061 1.227 16.758 3.682 4.74 2.454 8.4 5.776 10.981 9.966 2.624 4.147 3.936 8.802 3.936 13.965h-7.808c0-4.02-.952-7.596-2.856-10.728-1.862-3.174-4.57-5.649-8.125-7.427-3.512-1.82-7.808-2.729-12.886-2.729s-9.352.783-12.822 2.349c-3.428 1.523-6.03 3.576-7.808 6.157-1.735 2.539-2.602 5.374-2.602 8.506 0 2.2.423 4.232 1.269 6.094.847 1.82 2.222 3.534 4.126 5.142 1.947 1.566 4.507 3.047 7.681 4.443 3.174 1.354 7.088 2.645 11.743 3.872 4.909 1.354 9.268 2.857 13.076 4.507s7.025 3.555 9.649 5.713c2.623 2.116 4.612 4.591 5.967 7.427s2.031 6.136 2.031 9.902-.804 7.152-2.412 10.157c-1.566 2.962-3.788 5.48-6.665 7.553-2.836 2.074-6.2 3.661-10.093 4.761-3.851 1.1-8.062 1.651-12.632 1.651a48.43 48.43 0 0 1-12.251-1.587c-4.062-1.058-7.786-2.688-11.172-4.888a25.82 25.82 0 0 1-8.061-8.633c-1.989-3.512-2.984-7.702-2.984-12.568h7.744c0 3.893.783 7.173 2.349 9.839s3.639 4.824 6.221 6.474c2.623 1.651 5.501 2.857 8.633 3.618 3.173.72 6.347 1.079 9.521 1.079 4.867 0 9.077-.719 12.632-2.158 3.597-1.439 6.369-3.449 8.315-6.03 1.989-2.624 2.984-5.671 2.984-9.141zm82.999-28.247v6.665h-56.177v-6.665h56.177zm-54.336-41.45V128h-7.807V35.578h7.807zm60.62 0V128h-7.807V35.578h7.807zm69.494 36.26H394.41l-.176-18.106h27.598c4.863 0 8.847-.615 11.953-1.846 3.105-1.289 5.42-3.135 6.943-5.537 1.582-2.461 2.373-5.449 2.373-8.965 0-3.984-.762-7.207-2.285-9.668-1.465-2.461-3.779-4.248-6.943-5.361-3.106-1.113-7.119-1.67-12.041-1.67H403.55V128h-26.367V.031h44.649c7.441 0 14.091.703 19.951 2.109 5.918 1.406 10.928 3.545 15.029 6.416s7.236 6.504 9.404 10.898c2.168 4.336 3.252 9.492 3.252 15.469 0 5.273-1.201 10.137-3.603 14.59-2.344 4.453-6.065 8.086-11.162 10.898-5.039 2.813-11.631 4.365-19.776 4.658l-7.646 6.768zM426.138 128h-38.935l10.283-20.566h28.652c4.629 0 8.408-.733 11.338-2.198 2.93-1.523 5.098-3.574 6.504-6.152s2.109-5.537 2.109-8.877c0-3.75-.644-7.002-1.933-9.756-1.231-2.754-3.223-4.863-5.977-6.328-2.754-1.523-6.386-2.285-10.898-2.285H401.88l.176-18.106h31.641l6.064 7.119c7.793-.117 14.063 1.26 18.809 4.131 4.805 2.813 8.291 6.475 10.459 10.986 2.226 4.512 3.34 9.346 3.34 14.502 0 8.203-1.787 15.117-5.362 20.742-3.574 5.566-8.818 9.756-15.732 12.568-6.855 2.813-15.234 4.219-25.137 4.219zm116.846-14.854V128h-46.528v-14.854h46.528zm-40.371-77.568V128H483.57V35.578h19.043zm109.406 77.568V128h-49.194v-14.854h49.194zm-42.974-77.568V128h-19.043V35.578h19.043zm36.563 37.642v14.473h-42.783V73.22h42.783zm6.347-37.642v14.917h-49.13V35.578h49.13zm82.492 0V128h-19.043L638.27 66.047V128h-19.043V35.578h19.043l37.198 62.017V35.578h18.979zM735.488 128h-20.122l.127-14.854h19.995c4.994 0 9.205-1.121 12.632-3.364 3.428-2.285 6.009-5.607 7.744-9.966 1.778-4.359 2.666-9.627 2.666-15.806v-4.507c0-4.74-.507-8.908-1.523-12.505-.973-3.597-2.433-6.623-4.38-9.077s-4.337-4.295-7.173-5.523c-2.835-1.27-6.093-1.904-9.775-1.904h-20.693V35.578h20.693c6.178 0 11.828 1.058 16.948 3.174 5.163 2.073 9.627 5.057 13.394 8.95s6.665 8.548 8.696 13.965c2.074 5.374 3.11 11.362 3.11 17.964v4.38c0 6.559-1.036 12.547-3.11 17.964-2.031 5.416-4.93 10.071-8.696 13.964-3.724 3.851-8.189 6.835-13.394 8.951-5.163 2.073-10.876 3.11-17.139 3.11zm-9.331-92.422V128h-19.043V35.578h19.043z" fill="#fff"/></svg>