<svg xmlns="http://www.w3.org/2000/svg" width="775" height="119" fill="#fff"><path d="M726.627 117.578H706.05l.152-14.417h20.425c5.8 0 10.541-1.057 14.222-3.171 3.682-2.164 6.38-5.284 8.095-9.36 1.765-4.076 2.648-9.033 2.648-14.87v-4.378c0-4.378-.505-8.253-1.513-11.624-.959-3.422-2.446-6.29-4.464-8.605s-4.589-4.051-7.716-5.208c-3.076-1.208-6.733-1.812-10.969-1.812h-21.258V29.641h21.258c6.304 0 12.079 1.006 17.324 3.019 5.295 2.013 9.834 4.881 13.617 8.605 3.833 3.673 6.783 8.077 8.851 13.209 2.118 5.133 3.177 10.819 3.177 17.059v4.227c0 8.303-1.841 15.6-5.522 21.89-3.632 6.291-8.7 11.197-15.206 14.72-6.456 3.472-13.97 5.208-22.544 5.208zm-10.288-87.937v87.937h-18.232V29.641h18.232zm-33.428 0v87.937h-18.308l-39.792-60.613v60.613h-18.232V29.641h18.232l39.792 60.613V29.641h18.308zm-88.439 73.52v14.417h-50.459v-14.417h50.459zm-44.71-73.52v87.937h-18.231V29.641h18.231zm38.204 35.25v14.417h-43.953V64.891h43.953zm6.354-35.25v14.493h-50.307V29.641h50.307zm-74.588 73.52v14.417h-47.735v-14.417h47.735zm-41.985-73.52v87.937h-18.232V29.641h18.232zm-71.19 35.301h-29.744l-.16-14.639h25.976c4.382 0 8.097-.64 11.143-1.92 3.1-1.333 5.452-3.226 7.056-5.68 1.603-2.506 2.774-5.52 2.774-9.039 0-5.071-1.118-8.569-2.614-11.022s-3.795-4.24-6.895-5.36c-3.046-1.12-6.948-1.68-11.705-1.68h-19.482v101.976h-18.199V1.107h37.681c6.414 0 12.133.613 17.157 1.84 5.077 1.227 9.38 3.146 12.907 5.76 3.581 2.56 6.28 5.813 8.098 9.759 1.87 3.946 2.806 8.639 2.806 14.079 0 4.8-1.149 9.199-3.448 13.199-2.298 3.946-5.692 7.173-10.181 9.679s-10.075 4-16.756 4.48l-6.414 5.04zm-.882 52.637H370.48l9.059-14.532h26.136c4.543 0 8.338-.747 11.384-2.24 3.047-1.547 5.318-3.653 6.815-6.32 1.55-2.72 2.694-7.28 2.694-10.906 0-3.786-1.037-7.066-2.373-9.839-1.336-2.826-3.448-4.986-6.334-6.48-2.886-1.547-6.654-2.32-11.304-2.32h-22.608l.16-14.639h29.423l4.57 5.52c6.413.213 11.678 1.627 15.793 4.24 4.169 2.613 7.269 6 9.3 10.159s3.047 8.639 3.047 13.439c0 7.413-1.63 13.626-4.891 18.639-3.206 5.013-7.83 8.826-13.869 11.439-6.04 2.56-13.309 3.84-21.807 3.84zm-66.013-47.296v7.781h-57.011v-7.781h57.011zm-54.74-40.643v88.009h-9.009V29.641h9.009zm61.781 0v88.009h-9.009V29.641h9.009zm-93.544 66.175c0-2.266-.429-4.306-1.287-6.119-.808-1.813-2.145-3.45-4.013-4.91s-4.391-2.795-7.571-4.004c-3.18-1.259-7.117-2.443-11.811-3.551-4.846-1.209-9.237-2.568-13.174-4.079-3.887-1.511-7.218-3.248-9.994-5.212-2.726-2.014-4.82-4.356-6.284-7.026-1.464-2.72-2.196-5.867-2.196-9.443 0-3.475.783-6.623 2.347-9.443s3.786-5.238 6.663-7.252c2.877-2.065 6.259-3.626 10.145-4.684 3.937-1.108 8.253-1.662 12.947-1.662 6.663 0 12.442 1.158 17.338 3.475s8.682 5.49 11.357 9.519c2.675 3.979 4.013 8.461 4.013 13.447h-9.01c0-3.576-.934-6.774-2.801-9.594s-4.568-5.036-8.102-6.648c-3.482-1.612-7.773-2.417-12.871-2.417-4.997 0-9.211.68-12.644 2.04s-6.031 3.198-7.798 5.515c-1.716 2.266-2.574 4.784-2.574 7.554 0 2.014.404 3.878 1.211 5.59.858 1.662 2.246 3.198 4.164 4.608 1.969 1.41 4.568 2.745 7.799 4.004 3.281 1.259 7.319 2.468 12.114 3.626s9.11 2.518 12.946 4.079 7.092 3.4 9.767 5.515c2.726 2.065 4.795 4.508 6.209 7.328 1.463 2.77 2.195 5.968 2.195 9.594s-.807 6.874-2.423 9.745-3.911 5.313-6.889 7.328c-2.928 1.964-6.411 3.475-10.449 4.533-3.987 1.057-8.328 1.586-13.022 1.586a54.88 54.88 0 0 1-12.72-1.511c-4.189-1.007-8.025-2.594-11.508-4.759s-6.259-4.936-8.328-8.31c-2.07-3.425-3.104-7.504-3.104-12.238h9.009c0 3.576.758 6.598 2.272 9.065 1.565 2.418 3.634 4.382 6.208 5.893 2.625 1.46 5.502 2.543 8.631 3.248a46.45 46.45 0 0 0 9.54.982c4.846 0 9.035-.655 12.568-1.964s6.259-3.123 8.177-5.439a12 12 0 0 0 2.953-8.008zm-67.299 14.054v7.781h-53.15v-7.781h53.15zm-50.273-80.228v88.009h-9.01V29.641h9.01zm43.686 38.527v7.706H132.71v-7.706h46.563zm6.359-38.527v7.857H132.71v-7.857h52.922zM2.869 1.107h9.941L55.943 103.66 99.155 1.107h9.861L59.711 117.579h-7.536L2.869 1.107zm-2.307 0h7.999l1.042 65.595v50.877H.562V1.107zm102.922 0h7.897v116.472h-9.019V66.702l1.122-65.595z"/></svg>